# File produced by Open Asset Import Library (http://www.assimp.sf.net)
# (assimp v3.1.151580502)

mtllib Box.mtl

# 56 vertex positions
v  -0.398046 0.398046 0.445995
v  -0.398046 -0.398046 0.445995
v  0.398046 -0.398046 0.445995
v  0.398046 0.398046 0.445995
v  -0.398398 0.445995 -0.398398
v  -0.398398 0.445995 0.398398
v  0.398398 0.445995 0.398398
v  0.398398 0.445995 -0.398398
v  -0.398046 -0.398046 -0.445995
v  -0.398046 0.398046 -0.445995
v  0.398046 0.398046 -0.445995
v  0.398046 -0.398046 -0.445995
v  -0.398398 -0.445995 0.398398
v  -0.398398 -0.445995 -0.398398
v  0.398398 -0.445995 -0.398398
v  0.398398 -0.445995 0.398398
v  0.445995 0.400392 0.400392
v  0.445995 -0.400392 0.400392
v  0.445995 -0.400392 -0.400392
v  0.445995 0.400392 -0.400392
v  -0.445995 0.400392 -0.400392
v  -0.445995 -0.400392 -0.400392
v  -0.445995 -0.400392 0.400392
v  -0.445995 0.400392 0.400392
v  -0.446246 -0.446246 0.5
v  -0.5 -0.5 0.5
v  0.5 -0.5 0.5
v  0.446246 -0.446246 0.5
v  0.5 0.5 0.5
v  0.446246 0.446246 0.5
v  -0.5 0.5 0.5
v  -0.446246 0.446246 0.5
v  -0.446245 0.446246 -0.5
v  -0.5 0.5 -0.5
v  0.5 0.5 -0.5
v  0.446245 0.446246 -0.5
v  0.5 -0.5 -0.5
v  0.446246 -0.446246 -0.5
v  -0.5 -0.5 -0.5
v  -0.446246 -0.446246 -0.5
v  0.5 -0.448876 0.448876
v  0.5 -0.448876 -0.448876
v  0.5 0.448876 -0.448876
v  0.5 0.448876 0.448876
v  -0.5 -0.448876 -0.448876
v  -0.5 -0.448876 0.448876
v  -0.5 0.448876 0.448876
v  -0.5 0.448876 -0.448876
v  -0.44664 0.5 0.44664
v  0.44664 0.5 0.44664
v  0.44664 0.5 -0.44664
v  -0.44664 0.5 -0.44664
v  -0.44664 -0.5 -0.44664
v  0.44664 -0.5 -0.44664
v  0.44664 -0.5 0.44664
v  -0.44664 -0.5 0.44664

# 168 UV coordinates
vt 0.291203 0.997798 0
vt 0.291203 0.785312 0
vt 0.503688 0.785312 0
vt 0.503688 0.997798 0
vt 0.727925 0.973508 0
vt 0.727925 0.760835 0
vt 0.940598 0.760835 0
vt 0.940598 0.973508 0
vt 0.0729352 0.998008 0
vt 0.0729352 0.785523 0
vt 0.28542 0.785523 0
vt 0.28542 0.998008 0
vt 0.50947 0.973508 0
vt 0.50947 0.760835 0
vt 0.722143 0.760835 0
vt 0.722143 0.973508 0
vt 0.365755 0.757073 0
vt 0.365755 0.543336 0
vt 0.579493 0.543336 0
vt 0.579493 0.757073 0
vt 0.586176 0.757073 0
vt 0.586176 0.543336 0
vt 0.799914 0.543336 0
vt 0.799914 0.757073 0
vt 0.016225 0.0163396 0
vt 0.00187744 0.00199203 0
vt 0.268787 0.00199203 0
vt 0.25444 0.0163396 0
vt 0.268787 0.268902 0
vt 0.25444 0.254554 0
vt 0.00187744 0.268902 0
vt 0.016225 0.254554 0
vt 0.290098 0.0163397 0
vt 0.27575 0.00199204 0
vt 0.54266 0.00199204 0
vt 0.528313 0.0163397 0
vt 0.54266 0.268902 0
vt 0.528313 0.254554 0
vt 0.27575 0.268902 0
vt 0.290098 0.254554 0
vt 0.563085 0.0156376 0
vt 0.549439 0.00199203 0
vt 0.81635 0.00199203 0
vt 0.802704 0.0156376 0
vt 0.81635 0.268902 0
vt 0.802704 0.255256 0
vt 0.549439 0.268902 0
vt 0.563085 0.255256 0
vt 0.687334 0.28631 0
vt 0.673688 0.272664 0
vt 0.940598 0.272664 0
vt 0.926953 0.28631 0
vt 0.940598 0.539574 0
vt 0.926953 0.525928 0
vt 0.673688 0.539574 0
vt 0.687334 0.525928 0
vt 0.415238 0.286906 0
vt 0.400996 0.272664 0
vt 0.667906 0.272664 0
vt 0.653663 0.286906 0
vt 0.667906 0.539574 0
vt 0.653663 0.525331 0
vt 0.400996 0.539574 0
vt 0.415238 0.525331 0
vt 0.142546 0.286906 0
vt 0.128303 0.272664 0
vt 0.395213 0.272664 0
vt 0.380971 0.286906 0
vt 0.395213 0.539574 0
vt 0.380971 0.525331 0
vt 0.128303 0.539574 0
vt 0.142546 0.525331 0
vt 0.218528 0.768686 0
vt 0.204114 0.781551 0
vt 0.204114 0.543336 0
vt 0.218528 0.556201 0
vt 0.224319 0.556201 0
vt 0.238733 0.543336 0
vt 0.238733 0.781551 0
vt 0.224319 0.768686 0
vt 0.244524 0.556201 0
vt 0.258939 0.543336 0
vt 0.258939 0.781551 0
vt 0.244524 0.768686 0
vt 0.279144 0.768686 0
vt 0.264729 0.781551 0
vt 0.264729 0.543336 0
vt 0.279144 0.556201 0
vt 0.0568861 0.741594 0
vt 0.0424716 0.75447 0
vt 0.0424716 0.516045 0
vt 0.0568861 0.528921 0
vt 0.0626768 0.528921 0
vt 0.0770914 0.516045 0
vt 0.0770914 0.75447 0
vt 0.0626768 0.741594 0
vt 0.0828821 0.528921 0
vt 0.0972966 0.516045 0
vt 0.0972966 0.75447 0
vt 0.0828821 0.741594 0
vt 0.103087 0.528921 0
vt 0.117502 0.516045 0
vt 0.117502 0.75447 0
vt 0.103087 0.741594 0
vt 0.299349 0.768686 0
vt 0.284935 0.781551 0
vt 0.284935 0.543336 0
vt 0.299349 0.556201 0
vt 0.319554 0.768686 0
vt 0.30514 0.781551 0
vt 0.30514 0.543336 0
vt 0.319554 0.556201 0
vt 0.325345 0.556201 0
vt 0.33976 0.543336 0
vt 0.33976 0.781551 0
vt 0.325345 0.768686 0
vt 0.34555 0.556201 0
vt 0.359965 0.543336 0
vt 0.359965 0.781551 0
vt 0.34555 0.768686 0
vt 0.137707 0.768885 0
vt 0.123293 0.781761 0
vt 0.123293 0.543336 0
vt 0.137707 0.556212 0
vt 0.157912 0.768885 0
vt 0.143498 0.781761 0
vt 0.143498 0.543336 0
vt 0.157912 0.556212 0
vt 0.163703 0.556212 0
vt 0.178118 0.543336 0
vt 0.178118 0.781761 0
vt 0.163703 0.768885 0
vt 0.198323 0.768885 0
vt 0.183908 0.781761 0
vt 0.183908 0.543336 0
vt 0.198323 0.556212 0
vt 0.108106 0.285605 0
vt 0.122521 0.272664 0
vt 0.122521 0.512283 0
vt 0.108106 0.499342 0
vt 0.0879096 0.285605 0
vt 0.102324 0.272664 0
vt 0.102324 0.512283 0
vt 0.0879096 0.499342 0
vt 0.0677127 0.285605 0
vt 0.0821272 0.272664 0
vt 0.0821272 0.512283 0
vt 0.0677127 0.499342 0
vt 0.0475158 0.285605 0
vt 0.0619303 0.272664 0
vt 0.0619303 0.512283 0
vt 0.0475158 0.499342 0
vt 0.0417334 0.499342 0
vt 0.0273189 0.512283 0
vt 0.0273189 0.272664 0
vt 0.0417334 0.285605 0
vt 0.0215365 0.499342 0
vt 0.00712199 0.512283 0
vt 0.00712199 0.272664 0
vt 0.0215365 0.285605 0
vt 0.016292 0.742723 0
vt 0.00187744 0.755663 0
vt 0.00187744 0.516045 0
vt 0.016292 0.528985 0
vt 0.0366809 0.742723 0
vt 0.0222664 0.755663 0
vt 0.0222664 0.516045 0
vt 0.0366809 0.528985 0

# 60 vertex normals
vn 0 0 1
vn 0 1 0
vn 0 0 -1
vn 0 -1 0
vn 1 0 0
vn -1 0 0
vn -2.92955e-07 0 1
vn -2.92955e-07 0 -1
vn 1 3.07173e-07 0
vn 1 3.07173e-07 0
vn 1 -3.07173e-07 0
vn 1 -3.07173e-07 0
vn -1 3.07173e-07 0
vn -1 3.07173e-07 0
vn -1 -3.07173e-07 0
vn -1 -3.07173e-07 0
vn 0 0.746073 0.665864
vn 0 0.746073 0.665864
vn -0.746073 0 0.665864
vn -0.746073 0 0.665864
vn 0 -0.746073 0.665864
vn 0 -0.746073 0.665864
vn 0.746073 0 0.665864
vn 0.746073 0 0.665864
vn 0 0.666191 -0.745781
vn 0 0.666191 -0.745782
vn -0.745782 0.666191 0
vn -0.745782 0.666191 0
vn 0 0.666191 0.745781
vn 0 0.666191 0.745782
vn 0.745782 0.666191 0
vn 0.745782 0.666191 0
vn 0 -0.746074 -0.665864
vn 0 -0.746074 -0.665863
vn -0.746073 -3.04778e-08 -0.665864
vn -0.746073 -3.04778e-08 -0.665864
vn 0 0.746073 -0.665864
vn 0 0.746073 -0.665864
vn 0.746073 -3.04778e-08 -0.665864
vn 0.746073 -3.04778e-08 -0.665864
vn 0 -0.666191 0.745781
vn 0 -0.666191 0.745782
vn -0.745782 -0.666191 0
vn -0.745782 -0.666191 0
vn 0 -0.666191 -0.745781
vn 0 -0.666191 -0.745782
vn 0.745782 -0.666191 0
vn 0.745782 -0.666191 0
vn 0.66804 0.744126 0
vn 0.668039 0 0.744126
vn 0.668039 0 0.744126
vn 0.66804 -0.744126 0
vn 0.668039 0 -0.744126
vn 0.668039 0 -0.744126
vn -0.66804 0.744126 0
vn -0.668039 0 -0.744126
vn -0.668039 0 -0.744126
vn -0.66804 -0.744126 0
vn -0.668039 0 0.744126
vn -0.668039 0 0.744126

# Mesh 'Box_Box' with 108 faces
g Box_Box
usemtl lambert1
f  1/1/1 2/2/1 3/3/1
f  3/3/1 4/4/1 1/1/1
f  5/5/2 6/6/2 7/7/2
f  7/7/2 8/8/2 5/5/2
f  9/9/3 10/10/3 11/11/3
f  11/11/3 12/12/3 9/9/3
f  13/13/4 14/14/4 15/15/4
f  15/15/4 16/16/4 13/13/4
f  17/17/5 18/18/5 19/19/5
f  19/19/5 20/20/5 17/17/5
f  21/21/6 22/22/6 23/23/6
f  23/23/6 24/24/6 21/21/6
f  25/25/1 26/26/1 27/27/1
f  27/27/1 28/28/1 25/25/1
f  28/28/1 27/27/1 29/29/7
f  29/29/7 30/30/7 28/28/1
f  30/30/7 29/29/7 31/31/1
f  31/31/1 32/32/1 30/30/7
f  32/32/1 31/31/1 26/26/1
f  26/26/1 25/25/1 32/32/1
f  33/33/3 34/34/3 35/35/3
f  35/35/3 36/36/3 33/33/3
f  36/36/3 35/35/3 37/37/8
f  37/37/8 38/38/8 36/36/3
f  38/38/8 37/37/8 39/39/3
f  39/39/3 40/40/3 38/38/8
f  40/40/3 39/39/3 34/34/3
f  34/34/3 33/33/3 40/40/3
f  41/41/9 27/42/10 37/43/10
f  37/43/10 42/44/9 41/41/9
f  42/44/9 37/43/10 35/45/5
f  35/45/5 43/46/5 42/44/9
f  43/46/5 35/45/5 29/47/11
f  29/47/11 44/48/12 43/46/5
f  44/48/12 29/47/11 27/42/10
f  27/42/10 41/41/9 44/48/12
f  45/49/13 39/50/14 26/51/14
f  26/51/14 46/52/13 45/49/13
f  46/52/13 26/51/14 31/53/6
f  31/53/6 47/54/6 46/52/13
f  47/54/6 31/53/6 34/55/15
f  34/55/15 48/56/16 47/54/6
f  48/56/16 34/55/15 39/50/14
f  39/50/14 45/49/13 48/56/16
f  49/57/2 31/58/2 29/59/2
f  29/59/2 50/60/2 49/57/2
f  50/60/2 29/59/2 35/61/2
f  35/61/2 51/62/2 50/60/2
f  51/62/2 35/61/2 34/63/2
f  34/63/2 52/64/2 51/62/2
f  52/64/2 34/63/2 31/58/2
f  31/58/2 49/57/2 52/64/2
f  53/65/4 39/66/4 37/67/4
f  37/67/4 54/68/4 53/65/4
f  54/68/4 37/67/4 27/69/4
f  27/69/4 55/70/4 54/68/4
f  55/70/4 27/69/4 26/71/4
f  26/71/4 56/72/4 55/70/4
f  56/72/4 26/71/4 39/66/4
f  39/66/4 53/65/4 56/72/4
f  2/73/17 25/74/18 28/75/18
f  28/75/18 3/76/17 2/73/17
f  3/77/19 28/78/20 30/79/20
f  30/79/20 4/80/19 3/77/19
f  4/81/21 30/82/22 32/83/22
f  32/83/22 1/84/21 4/81/21
f  1/85/23 32/86/24 25/87/24
f  25/87/24 2/88/23 1/85/23
f  6/89/25 49/90/26 50/91/26
f  50/91/26 7/92/25 6/89/25
f  7/93/27 50/94/28 51/95/28
f  51/95/28 8/96/27 7/93/27
f  8/97/29 51/98/30 52/99/30
f  52/99/30 5/100/29 8/97/29
f  5/101/31 52/102/32 49/103/32
f  49/103/32 6/104/31 5/101/31
f  10/105/33 33/106/34 36/107/34
f  36/107/34 11/108/33 10/105/33
f  11/109/35 36/110/36 38/111/36
f  38/111/36 12/112/35 11/109/35
f  12/113/37 38/114/38 40/115/38
f  40/115/38 9/116/37 12/113/37
f  9/117/39 40/118/40 33/119/40
f  33/119/40 10/120/39 9/117/39
f  14/121/41 53/122/42 54/123/42
f  54/123/42 15/124/41 14/121/41
f  15/125/43 54/126/44 55/127/44
f  55/127/44 16/128/43 15/125/43
f  16/129/45 55/130/46 56/131/46
f  56/131/46 13/132/45 16/129/45
f  13/133/47 56/134/48 53/135/48
f  53/135/48 14/136/47 13/133/47
f  18/137/49 41/138/49 42/139/49
f  42/139/49 19/140/49 18/137/49
f  19/141/50 42/142/51 43/143/51
f  43/143/51 20/144/50 19/141/50
f  20/145/52 43/146/52 44/147/52
f  44/147/52 17/148/52 20/145/52
f  17/149/53 44/150/54 41/151/54
f  41/151/54 18/152/53 17/149/53
f  22/153/55 45/154/55 46/155/55
f  46/155/55 23/156/55 22/153/55
f  23/157/56 46/158/57 47/159/57
f  47/159/57 24/160/56 23/157/56
f  24/161/58 47/162/58 48/163/58
f  48/163/58 21/164/58 24/161/58
f  21/165/59 48/166/60 45/167/60
f  45/167/60 22/168/59 21/165/59

