# File produced by Open Asset Import Library (http://www.assimp.sf.net)
# (assimp v3.1.151580502)

mtllib Cone4D.mtl

# 21 vertex positions
v  0.808427 0.588598 -1
v  0.950746 0.309973 -1
v  1 0.00100478 -1
v  0.951367 -0.308061 -1
v  0.809607 -0.586972 -1
v  0.588598 -0.808426 -1
v  0.309972 -0.950746 -1
v  0.00100475 -1 -1
v  -0.308061 -0.951367 -1
v  -0.586972 -0.809607 -1
v  -0.808426 -0.588598 -1
v  -0.950746 -0.309973 -1
v  -1 -0.00100478 -1
v  -0.951367 0.308061 -1
v  -0.809608 0.586972 -1
v  -0.588598 0.808426 -1
v  -0.309973 0.950746 -1
v  -0.00100478 1 -1
v  0.308061 0.951367 -1
v  0.586972 0.809608 -1
v  0 0 1

# 42 UV coordinates
vt 0.702254 0.103054 0
vt 0.737764 0.172746 0
vt 0.75 0.25 0
vt 0.737764 0.327254 0
vt 0.702254 0.396946 0
vt 0.646946 0.452254 0
vt 0.577254 0.487764 0
vt 0.5 0.5 0
vt 0.422746 0.487764 0
vt 0.353054 0.452254 0
vt 0.297746 0.396946 0
vt 0.262236 0.327254 0
vt 0.25 0.25 0
vt 0.262236 0.172746 0
vt 0.297746 0.103054 0
vt 0.353054 0.0477457 0
vt 0.422746 0.0122358 0
vt 0.5 -1.19209e-07 0
vt 0.577254 0.0122357 0
vt 0.646946 0.0477456 0
vt 0.25 0.5 0
vt 0.275 0.5 0
vt 0.5 1 0
vt 0.3 0.5 0
vt 0.325 0.5 0
vt 0.35 0.5 0
vt 0.375 0.5 0
vt 0.4 0.5 0
vt 0.425 0.5 0
vt 0.45 0.5 0
vt 0.475 0.5 0
vt 0.5 0.5 0
vt 0.525 0.5 0
vt 0.55 0.5 0
vt 0.575 0.5 0
vt 0.6 0.5 0
vt 0.625 0.5 0
vt 0.65 0.5 0
vt 0.675 0.5 0
vt 0.7 0.5 0
vt 0.725 0.5 0
vt 0.75 0.5 0

# 23 vertex normals
vn -9.69033e-12 9.64423e-09 -1
vn -9.69033e-12 9.64423e-09 -1
vn 0.850373 0.277247 0.447214
vn 0.723078 0.526458 0.447214
vn -2.33421e-07 9.76872e-07 1
vn 0.525004 0.724135 0.447214
vn 0.275538 0.850928 0.447214
vn -0.000898796 0.894427 0.447214
vn -0.277248 0.850373 0.447214
vn -0.526458 0.723078 0.447214
vn -0.724135 0.525004 0.447214
vn -0.850928 0.275538 0.447214
vn -0.894427 -0.000898703 0.447214
vn -0.850373 -0.277248 0.447214
vn -0.723078 -0.526458 0.447214
vn -0.525004 -0.724135 0.447214
vn -0.275538 -0.850928 0.447214
vn 0.000898789 -0.894427 0.447214
vn 0.277248 -0.850373 0.447214
vn 0.526458 -0.723078 0.447214
vn 0.724135 -0.525004 0.447214
vn 0.850928 -0.275538 0.447214
vn 0.894427 0.000897891 0.447214

# Mesh 'pCone1_pCone1' with 38 faces
g pCone1_pCone1
usemtl lambert1
f  1/1/1 2/2/2 3/3/2
f  1/1/1 3/3/2 4/4/1
f  1/1/1 4/4/1 5/5/2
f  1/1/1 5/5/2 6/6/1
f  1/1/1 6/6/1 7/7/1
f  1/1/1 7/7/1 8/8/1
f  1/1/1 8/8/1 9/9/1
f  1/1/1 9/9/1 10/10/2
f  1/1/1 10/10/2 11/11/1
f  1/1/1 11/11/1 12/12/1
f  1/1/1 12/12/1 13/13/1
f  1/1/1 13/13/1 14/14/1
f  1/1/1 14/14/1 15/15/2
f  1/1/1 15/15/2 16/16/1
f  1/1/1 16/16/1 17/17/1
f  1/1/1 17/17/1 18/18/1
f  1/1/1 18/18/1 19/19/1
f  19/19/1 20/20/1 1/1/1
f  2/21/3 1/22/4 21/23/5
f  1/22/4 20/24/6 21/23/5
f  20/24/6 19/25/7 21/23/5
f  19/25/7 18/26/8 21/23/5
f  18/26/8 17/27/9 21/23/5
f  17/27/9 16/28/10 21/23/5
f  16/28/10 15/29/11 21/23/5
f  15/29/11 14/30/12 21/23/5
f  14/30/12 13/31/13 21/23/5
f  13/31/13 12/32/14 21/23/5
f  12/32/14 11/33/15 21/23/5
f  11/33/15 10/34/16 21/23/5
f  10/34/16 9/35/17 21/23/5
f  9/35/17 8/36/18 21/23/5
f  8/36/18 7/37/19 21/23/5
f  7/37/19 6/38/20 21/23/5
f  6/38/20 5/39/21 21/23/5
f  5/39/21 4/40/22 21/23/5
f  4/40/22 3/41/23 21/23/5
f  3/41/23 2/42/3 21/23/5

