# Blender v2.80 (sub 75) OBJ File: 'Container.blend'
# www.blender.org
mtllib Container.mtl
o Container_Cube.001
v 6.400000 0.000000 0.500000
v 6.400000 3.400000 0.500000
v 6.400000 3.400000 4.300000
v 6.400000 0.000000 4.300000
v 0.000000 3.400000 4.300000
v 0.000000 0.000000 4.300000
v 0.000000 3.400000 0.500000
v 0.000000 0.000000 0.500000
vt 0.768826 0.142943
vt 0.768826 0.329235
vt 0.675822 0.329235
vt 0.675822 0.142943
vt 0.570979 0.118718
vt 0.570979 0.309016
vt 0.349675 0.309016
vt 0.349675 0.118718
vt 0.579551 0.146160
vt 0.579551 0.325381
vt 0.667007 0.325381
vt 0.667007 0.146160
vt 0.349675 0.118718
vt 0.349675 0.309016
vt 0.570979 0.309016
vt 0.570979 0.118718
vt 0.996125 0.144358
vt 0.775796 0.144358
vt 0.775796 0.327043
vt 0.996125 0.327043
vt 0.775796 0.144358
vt 0.996125 0.144358
vt 0.996125 0.327043
vt 0.775796 0.327043
vn 1.0000 0.0000 0.0000
vn 0.0000 0.0000 1.0000
vn -1.0000 0.0000 0.0000
vn 0.0000 0.0000 -1.0000
vn 0.0000 -1.0000 0.0000
vn 0.0000 1.0000 0.0000
usemtl Material
s 1
f 1/1/1 2/2/1 3/3/1 4/4/1
f 4/5/2 3/6/2 5/7/2 6/8/2
f 6/9/3 5/10/3 7/11/3 8/12/3
f 8/13/4 7/14/4 2/15/4 1/16/4
f 4/17/5 6/18/5 8/19/5 1/20/5
f 5/21/6 3/22/6 2/23/6 7/24/6
