{
    "asset": {
        "version": "2.0",
        "generator": "Open Asset Import Library (assimp v3.1.151580502)"
    },
    "accessors": [
        {
            "bufferView": 0,
            "byteOffset": 0,
            "componentType": 5126,
            "count": 240,
            "type": "VEC3",
            "max": [
                0.4878048896789551,
                1.0,
                0.4878048896789551
            ],
            "min": [
                -0.4878048896789551,
                -1.0,
                -0.4878048896789551
            ]
        },
        {
            "bufferView": 1,
            "byteOffset": 0,
            "componentType": 5126,
            "count": 240,
            "type": "VEC3",
            "max": [
                1.0,
                1.0,
                1.0
            ],
            "min": [
                -1.0,
                -1.0,
                -1.0
            ]
        },
        {
            "bufferView": 2,
            "byteOffset": 0,
            "componentType": 5126,
            "count": 240,
            "type": "VEC2",
            "max": [
                0.9996870160102844,
                0.9937340021133423
            ],
            "min": [
                0.006266000214964151,
                0.2167930006980896
            ]
        },
        {
            "bufferView": 3,
            "byteOffset": 0,
            "componentType": 5123,
            "count": 240,
            "type": "SCALAR",
            "max": [
                239.0
            ],
            "min": [
                0.0
            ]
        }
    ],
    "buffers": [
        {
            "byteLength": 8160,
            "uri": "Rack.bin"
        }
    ],
    "bufferViews": [
        {
            "buffer": 0,
            "byteOffset": 0,
            "byteLength": 2880,
            "target": 34962
        },
        {
            "buffer": 0,
            "byteOffset": 2880,
            "byteLength": 2880,
            "target": 34962
        },
        {
            "buffer": 0,
            "byteOffset": 5760,
            "byteLength": 1920,
            "target": 34962
        },
        {
            "buffer": 0,
            "byteOffset": 7680,
            "byteLength": 480,
            "target": 34963
        }
    ],
    "images": [
        {
            "uri": "../textures/Rack_RackMat_BaseColor.png"
        }
    ],
    "materials": [
        {
            "name": "RackMat",
            "pbrMetallicRoughness": {
                "baseColorTexture": {
                    "index": 0
                },
                "baseColorFactor": [
                    0.800000011920929,
                    0.800000011920929,
                    0.800000011920929,
                    1.0
                ],
                "metallicFactor": 0.0,
                "roughnessFactor": 0.5
            }
        }
    ],
    "meshes": [
        {
            "name": "Rack_Cube.001",
            "primitives": [
                {
                    "mode": 4,
                    "material": 0,
                    "indices": 3,
                    "attributes": {
                        "POSITION": 0,
                        "NORMAL": 1,
                        "TEXCOORD_0": 2
                    }
                }
            ]
        }
    ],
    "nodes": [
        {
            "matrix": [
                1.024999976158142,
                0.0,
                0.0,
                0.0,
                0.0,
                1.024999976158142,
                0.0,
                0.0,
                0.0,
                0.0,
                1.024999976158142,
                0.0,
                0.0,
                1.024999976158142,
                0.0,
                1.0
            ],
            "children": [
                1
            ]
        },
        {
            "name": "Rack_Cube.001",
            "mesh": 0
        }
    ],
    "samplers": [
        {}
    ],
    "scenes": [
        {
            "nodes": [
                0
            ]
        }
    ],
    "textures": [
        {
            "source": 0,
            "sampler": 0
        }
    ],
    "scene": 0
}
