# Blender v2.80 (sub 75) OBJ File: 'Rack.blend'
# www.blender.org
mtllib Rack.mtl
o Rack_Cube.001
v -0.500000 0.000000 0.500000
v -0.500000 2.000000 0.500000
v -0.500000 0.000000 0.450000
v -0.500000 2.000000 0.450000
v -0.450000 0.000000 0.500000
v -0.450000 2.000000 0.500000
v -0.450000 0.000000 0.450000
v -0.450000 2.000000 0.450000
v -0.490000 0.510000 0.490000
v -0.490000 0.560000 0.490000
v -0.490000 0.510000 -0.490000
v -0.490000 0.560000 -0.490000
v 0.490000 0.510000 0.490000
v 0.490000 0.560000 0.490000
v 0.490000 0.510000 -0.490000
v 0.490000 0.560000 -0.490000
v -0.490000 1.000000 0.490000
v -0.490000 1.050000 0.490000
v -0.490000 1.000000 -0.490000
v -0.490000 1.050000 -0.490000
v 0.490000 1.000000 0.490000
v 0.490000 1.050000 0.490000
v 0.490000 1.000000 -0.490000
v 0.490000 1.050000 -0.490000
v -0.490000 1.490000 0.490000
v -0.490000 1.540000 0.490000
v -0.490000 1.490000 -0.490000
v -0.490000 1.540000 -0.490000
v 0.490000 1.490000 0.490000
v 0.490000 1.540000 0.490000
v 0.490000 1.490000 -0.490000
v 0.490000 1.540000 -0.490000
v -0.500000 2.000000 0.500000
v -0.500000 2.050000 0.500000
v -0.500000 2.000000 -0.500000
v -0.500000 2.050000 -0.500000
v 0.500000 2.000000 0.500000
v 0.500000 2.050000 0.500000
v 0.500000 2.000000 -0.500000
v 0.500000 2.050000 -0.500000
v 0.450000 0.000000 0.500000
v 0.450000 2.000000 0.500000
v 0.450000 0.000000 0.450000
v 0.450000 2.000000 0.450000
v 0.500000 0.000000 0.500000
v 0.500000 2.000000 0.500000
v 0.500000 0.000000 0.450000
v 0.500000 2.000000 0.450000
v -0.500000 0.000000 -0.450000
v -0.500000 2.000000 -0.450000
v -0.500000 0.000000 -0.500000
v -0.500000 2.000000 -0.500000
v -0.450000 0.000000 -0.450000
v -0.450000 2.000000 -0.450000
v -0.450000 0.000000 -0.500000
v -0.450000 2.000000 -0.500000
v 0.450000 0.000000 -0.450000
v 0.450000 2.000000 -0.450000
v 0.450000 0.000000 -0.500000
v 0.450000 2.000000 -0.500000
v 0.500000 0.000000 -0.450000
v 0.500000 2.000000 -0.450000
v 0.500000 0.000000 -0.500000
v 0.500000 2.000000 -0.500000
vt 0.802944 0.513784
vt 0.802944 0.012531
vt 0.815476 0.012531
vt 0.815476 0.513784
vt 0.868107 0.012531
vt 0.868107 0.513784
vt 0.855576 0.513784
vt 0.855576 0.012531
vt 0.986529 0.012531
vt 0.986529 0.513784
vt 0.973998 0.513784
vt 0.973998 0.012531
vt 0.881892 0.513784
vt 0.881892 0.012531
vt 0.894423 0.012531
vt 0.894423 0.513784
vt 0.578634 0.783207
vt 0.566103 0.783207
vt 0.566103 0.532581
vt 0.578634 0.532581
vt 0.539787 0.532581
vt 0.552318 0.532581
vt 0.552318 0.783207
vt 0.539787 0.783207
vt 0.631265 0.783207
vt 0.618734 0.783207
vt 0.618734 0.532581
vt 0.631265 0.532581
vt 0.552945 0.532581
vt 0.565476 0.532581
vt 0.565476 0.783207
vt 0.552945 0.783207
vt 0.006266 0.532581
vt 0.256892 0.532581
vt 0.256892 0.783207
vt 0.006266 0.783207
vt 0.256892 0.006266
vt 0.256892 0.256892
vt 0.006266 0.256892
vt 0.006266 0.006266
vt 0.591792 0.783207
vt 0.579260 0.783207
vt 0.579260 0.532581
vt 0.591792 0.532581
vt 0.592418 0.532581
vt 0.604950 0.532581
vt 0.604950 0.783207
vt 0.592418 0.783207
vt 0.539160 0.783207
vt 0.526629 0.783207
vt 0.526629 0.532581
vt 0.539160 0.532581
vt 0.605576 0.532581
vt 0.618108 0.532581
vt 0.618108 0.783207
vt 0.605576 0.783207
vt 0.520050 0.783207
vt 0.269423 0.783207
vt 0.269423 0.532581
vt 0.520050 0.532581
vt 0.256892 0.269423
vt 0.256892 0.520050
vt 0.006266 0.520050
vt 0.006266 0.269423
vt 0.723371 0.783207
vt 0.710839 0.783207
vt 0.710839 0.532581
vt 0.723371 0.532581
vt 0.657581 0.783207
vt 0.645050 0.783207
vt 0.645050 0.532581
vt 0.657581 0.532581
vt 0.683897 0.783207
vt 0.671366 0.783207
vt 0.671366 0.532581
vt 0.683897 0.532581
vt 0.684524 0.532581
vt 0.697055 0.532581
vt 0.697055 0.783207
vt 0.684524 0.783207
vt 0.532581 0.269423
vt 0.783207 0.269423
vt 0.783207 0.520050
vt 0.532581 0.520050
vt 0.520050 0.269423
vt 0.520050 0.520050
vt 0.269423 0.520050
vt 0.269423 0.269423
vt 0.736529 0.783207
vt 0.723997 0.783207
vt 0.723997 0.532581
vt 0.736529 0.532581
vt 0.658208 0.532581
vt 0.670739 0.532581
vt 0.670739 0.783207
vt 0.658208 0.783207
vt 0.710213 0.783207
vt 0.697681 0.783207
vt 0.697681 0.532581
vt 0.710213 0.532581
vt 0.631892 0.532581
vt 0.644423 0.532581
vt 0.644423 0.783207
vt 0.631892 0.783207
vt 0.532581 0.006266
vt 0.783207 0.006266
vt 0.783207 0.256892
vt 0.532581 0.256892
vt 0.520050 0.006266
vt 0.520050 0.256892
vt 0.269423 0.256892
vt 0.269423 0.006266
vt 0.789786 0.513784
vt 0.789786 0.012531
vt 0.802318 0.012531
vt 0.802318 0.513784
vt 0.933897 0.012531
vt 0.933897 0.513784
vt 0.921366 0.513784
vt 0.921366 0.012531
vt 0.999687 0.012531
vt 0.999687 0.513784
vt 0.987155 0.513784
vt 0.987155 0.012531
vt 0.908208 0.513784
vt 0.908208 0.012531
vt 0.920739 0.012531
vt 0.920739 0.513784
vt 0.829260 0.513784
vt 0.829260 0.012531
vt 0.841792 0.012531
vt 0.841792 0.513784
vt 0.854949 0.012531
vt 0.854950 0.513784
vt 0.842418 0.513784
vt 0.842418 0.012531
vt 0.960840 0.513784
vt 0.960840 0.012531
vt 0.973371 0.012531
vt 0.973371 0.513784
vt 0.868734 0.513784
vt 0.868734 0.012531
vt 0.881265 0.012531
vt 0.881265 0.513784
vt 0.816102 0.513784
vt 0.816102 0.012531
vt 0.828634 0.012531
vt 0.828634 0.513784
vt 0.947055 0.012531
vt 0.947055 0.513784
vt 0.934524 0.513784
vt 0.934524 0.012531
vt 0.947682 0.513784
vt 0.947682 0.012531
vt 0.960213 0.012531
vt 0.960213 0.513784
vt 0.895050 0.513784
vt 0.895050 0.012531
vt 0.907581 0.012531
vt 0.907581 0.513784
vn -1.0000 0.0000 0.0000
vn 0.0000 0.0000 -1.0000
vn 1.0000 0.0000 0.0000
vn 0.0000 0.0000 1.0000
vn 0.0000 -1.0000 0.0000
vn 0.0000 1.0000 0.0000
usemtl RackMat
s off
f 1/1/1 2/2/1 4/3/1 3/4/1
f 3/5/2 4/6/2 8/7/2 7/8/2
f 7/9/3 8/10/3 6/11/3 5/12/3
f 5/13/4 6/14/4 2/15/4 1/16/4
f 9/17/1 10/18/1 12/19/1 11/20/1
f 11/21/2 12/22/2 16/23/2 15/24/2
f 15/25/3 16/26/3 14/27/3 13/28/3
f 13/29/4 14/30/4 10/31/4 9/32/4
f 11/33/5 15/34/5 13/35/5 9/36/5
f 16/37/6 12/38/6 10/39/6 14/40/6
f 17/41/1 18/42/1 20/43/1 19/44/1
f 19/45/2 20/46/2 24/47/2 23/48/2
f 23/49/3 24/50/3 22/51/3 21/52/3
f 21/53/4 22/54/4 18/55/4 17/56/4
f 19/57/5 23/58/5 21/59/5 17/60/5
f 24/61/6 20/62/6 18/63/6 22/64/6
f 25/65/1 26/66/1 28/67/1 27/68/1
f 27/69/2 28/70/2 32/71/2 31/72/2
f 31/73/3 32/74/3 30/75/3 29/76/3
f 29/77/4 30/78/4 26/79/4 25/80/4
f 27/81/5 31/82/5 29/83/5 25/84/5
f 32/85/6 28/86/6 26/87/6 30/88/6
f 33/89/1 34/90/1 36/91/1 35/92/1
f 35/93/2 36/94/2 40/95/2 39/96/2
f 39/97/3 40/98/3 38/99/3 37/100/3
f 37/101/4 38/102/4 34/103/4 33/104/4
f 35/105/5 39/106/5 37/107/5 33/108/5
f 40/109/6 36/110/6 34/111/6 38/112/6
f 41/113/1 42/114/1 44/115/1 43/116/1
f 43/117/2 44/118/2 48/119/2 47/120/2
f 47/121/3 48/122/3 46/123/3 45/124/3
f 45/125/4 46/126/4 42/127/4 41/128/4
f 49/129/1 50/130/1 52/131/1 51/132/1
f 51/133/2 52/134/2 56/135/2 55/136/2
f 55/137/3 56/138/3 54/139/3 53/140/3
f 53/141/4 54/142/4 50/143/4 49/144/4
f 57/145/1 58/146/1 60/147/1 59/148/1
f 59/149/2 60/150/2 64/151/2 63/152/2
f 63/153/3 64/154/3 62/155/3 61/156/3
f 61/157/4 62/158/4 58/159/4 57/160/4
