# Blender v2.80 (sub 75) OBJ File: 'Robot.blend'
# www.blender.org
mtllib Robot.mtl
o Cube
v 0.438605 0.297472 -0.450801
v 0.456637 0.006968 -0.458600
v 0.443537 0.309199 0.442482
v 0.458782 0.006968 0.461694
v 0.250000 0.006968 0.481327
v 0.274940 0.326276 -0.453934
v 0.250000 0.006968 -0.481388
v 0.303108 0.347327 0.464748
v 0.448564 0.225291 -0.464121
v 0.457035 0.220615 0.473193
v 0.274394 0.220086 0.486532
v 0.275038 0.225487 -0.482328
v 0.473556 0.353587 0.300000
v 0.479425 0.006968 0.300000
v 0.216950 0.395109 0.243261
v 0.250000 0.006968 0.300000
v 0.500000 0.201038 0.300000
v 0.479425 0.006968 -0.300000
v 0.473556 0.353587 -0.300000
v 0.218246 0.395109 -0.237347
v 0.250000 0.006968 -0.300000
v 0.500000 0.201038 -0.300000
v 0.226956 0.395109 -0.244154
v 0.225622 0.395109 0.250249
v 0.218246 0.437710 -0.237347
v 0.216950 0.437710 0.243261
v 0.461269 0.324558 0.442128
v 0.288013 0.370905 0.466984
v 0.479357 0.201038 0.480366
v 0.250000 0.201038 0.500000
v 0.250000 0.355483 -0.458394
v 0.460806 0.318129 -0.453384
v 0.477212 0.201038 -0.477212
v 0.250000 0.201038 -0.500000
v -0.438605 0.297472 -0.450801
v -0.456637 0.006968 -0.458600
v -0.443537 0.309199 0.442482
v -0.458782 0.006968 0.461694
v 0.000000 0.006968 -0.481388
v 0.000000 0.370905 0.466984
v 0.000000 0.006968 0.481327
v 0.000000 0.355483 -0.458394
v -0.250000 0.006968 0.481327
v -0.274940 0.326276 -0.453934
v -0.250000 0.006968 -0.481388
v -0.303108 0.347327 0.464748
v -0.448564 0.225291 -0.464121
v -0.457035 0.220615 0.473193
v 0.000000 0.201038 -0.500000
v 0.000000 0.201038 0.500000
v -0.274394 0.220086 0.486532
v -0.275038 0.225487 -0.482328
v -0.473556 0.353587 0.300000
v -0.479425 0.006968 0.300000
v 0.000000 0.006968 0.300000
v 0.000000 0.395109 0.300000
v -0.216950 0.395109 0.243261
v -0.250000 0.006968 0.300000
v -0.500000 0.201038 0.300000
v -0.479425 0.006968 -0.300000
v -0.473556 0.353587 -0.300000
v 0.000000 0.006968 -0.300000
v 0.000000 0.395109 -0.300000
v -0.218246 0.395109 -0.237347
v -0.250000 0.006968 -0.300000
v -0.500000 0.201038 -0.300000
v 0.000000 0.395109 -0.288911
v -0.226956 0.395109 -0.244154
v 0.000000 0.395109 0.289183
v -0.225622 0.395109 0.250249
v 0.000000 0.437710 -0.288911
v 0.000000 0.437710 0.289183
v -0.218246 0.437710 -0.237347
v -0.216950 0.437710 0.243261
v -0.461269 0.324558 0.442128
v -0.288013 0.370905 0.466984
v -0.479357 0.201038 0.480366
v -0.250000 0.201038 0.500000
v -0.250000 0.355483 -0.458394
v -0.460806 0.318129 -0.453384
v -0.477212 0.201038 -0.477212
v -0.250000 0.201038 -0.500000
v 0.477212 0.201038 -0.477212
v 0.456637 0.006968 -0.458600
v 0.456637 0.006968 -0.458600
v 0.479357 0.201038 0.480366
v 0.458782 0.006968 0.461694
v 0.458782 0.006968 0.461694
v 0.473556 0.353587 0.300000
v 0.461269 0.324558 0.442128
v 0.461269 0.324558 0.442128
v 0.250000 0.006968 0.481327
v 0.250000 0.355483 -0.458394
v 0.460806 0.318129 -0.453384
v 0.460806 0.318129 -0.453384
v 0.479425 0.006968 -0.300000
v 0.250000 0.006968 -0.481388
v 0.000000 0.006968 -0.481388
v 0.288013 0.370905 0.466984
v 0.000000 0.370905 0.466984
v 0.000000 0.006968 0.481327
v 0.000000 0.355483 -0.458394
v 0.473556 0.353587 -0.300000
v 0.479425 0.006968 0.300000
v 0.218246 0.395109 -0.237347
v 0.218246 0.395109 -0.237347
v 0.216950 0.395109 0.243261
v 0.216950 0.395109 0.243261
v 0.000000 0.395109 0.289183
v 0.000000 0.395109 -0.288911
v 0.218246 0.437710 -0.237347
v 0.218246 0.437710 -0.237347
v 0.216950 0.437710 0.243261
v 0.216950 0.437710 0.243261
v 0.000000 0.437710 0.289183
v 0.000000 0.437710 -0.288911
v 0.443537 0.309199 0.442482
v 0.303108 0.347327 0.464748
v 0.457035 0.220615 0.473193
v 0.274394 0.220086 0.486532
v 0.274940 0.326276 -0.453934
v 0.438605 0.297472 -0.450801
v 0.448564 0.225291 -0.464121
v 0.275038 0.225487 -0.482328
v -0.477212 0.201038 -0.477212
v -0.456637 0.006968 -0.458600
v -0.456637 0.006968 -0.458600
v -0.479357 0.201038 0.480366
v -0.458782 0.006968 0.461694
v -0.458782 0.006968 0.461694
v -0.473556 0.353587 0.300000
v -0.461269 0.324558 0.442128
v -0.461269 0.324558 0.442128
v -0.250000 0.006968 0.481327
v -0.250000 0.355483 -0.458394
v -0.460806 0.318129 -0.453384
v -0.460806 0.318129 -0.453384
v -0.479425 0.006968 -0.300000
v -0.250000 0.006968 -0.481388
v -0.288013 0.370905 0.466984
v -0.473556 0.353587 -0.300000
v -0.479425 0.006968 0.300000
v -0.218246 0.395109 -0.237347
v -0.218246 0.395109 -0.237347
v -0.216950 0.395109 0.243261
v -0.216950 0.395109 0.243261
v -0.218246 0.437710 -0.237347
v -0.218246 0.437710 -0.237347
v -0.216950 0.437710 0.243261
v -0.216950 0.437710 0.243261
v -0.443537 0.309199 0.442482
v -0.303108 0.347327 0.464748
v -0.457035 0.220615 0.473193
v -0.274394 0.220086 0.486532
v -0.274940 0.326276 -0.453934
v -0.438605 0.297472 -0.450801
v -0.448564 0.225291 -0.464121
v -0.275038 0.225487 -0.482328
vt 0.164246 0.534486
vt 0.308079 0.534486
vt 0.295138 0.641783
vt 0.164246 0.654811
vt 0.755123 0.531670
vt 0.851169 0.531628
vt 0.833181 0.625917
vt 0.755469 0.651319
vt 0.716243 0.809276
vt 0.651949 0.808358
vt 0.669821 0.699779
vt 0.715553 0.693566
vt 0.429456 0.818081
vt 0.321285 0.844056
vt 0.321285 0.653898
vt 0.429456 0.653020
vt 0.479776 0.486161
vt 0.620962 0.519006
vt 0.620036 0.629507
vt 0.439809 0.629717
vt 0.323041 0.518856
vt 0.329621 0.612800
vt 0.415326 0.956394
vt 0.357939 0.948831
vt 0.335807 0.854351
vt 0.416621 0.834930
vt 0.732321 0.992076
vt 0.633884 0.990659
vt 0.633884 0.825171
vt 0.732321 0.826588
vt 0.007514 0.534486
vt 0.007514 0.654811
vt 0.852849 0.990571
vt 0.852849 0.825083
vt 0.547541 0.959947
vt 0.428036 0.970809
vt 0.548961 0.820803
vt 0.548961 0.655743
vt 0.731303 0.675128
vt 0.851832 0.687243
vt 0.633843 0.531622
vt 0.634188 0.638880
vt 0.633843 0.133474
vt 0.755123 0.133522
vt 0.007514 0.136337
vt 0.164246 0.136337
vt 0.323041 0.120771
vt 0.478942 0.158138
vt 0.609991 0.649082
vt 0.609991 0.795961
vt 0.583352 0.795635
vt 0.583352 0.648756
vt 0.851169 0.133481
vt 0.308079 0.136337
vt 0.164246 0.015971
vt 0.293793 0.031093
vt 0.755505 0.015886
vt 0.829160 0.031673
vt 0.463007 0.015541
vt 0.619447 0.015359
vt 0.620962 0.120921
vt 0.329665 0.018573
vt 0.007514 0.015971
vt 0.634224 0.028189
vt 0.484392 0.162648
vt 0.485203 0.481518
vt 0.620962 0.511829
vt 0.620962 0.128278
vt 0.860016 0.043959
vt 0.996586 0.009589
vt 0.996586 0.393140
vt 0.860827 0.362829
vt 0.582019 0.653053
vt 0.582019 0.971972
vt 0.555320 0.971968
vt 0.555320 0.653049
vt 0.000663 0.821112
vt 0.000663 0.674797
vt 0.027193 0.674449
vt 0.027193 0.820764
vt 0.335807 0.854351
vt 0.357939 0.948831
vt 0.348349 0.960444
vt 0.415326 0.956394
vt 0.416621 0.834930
vt 0.669821 0.699779
vt 0.651949 0.808358
vt 0.657019 0.685271
vt 0.715553 0.693566
vt 0.716243 0.809276
vt 0.164246 0.534486
vt 0.164246 0.654811
vt 0.295138 0.641783
vt 0.308079 0.534486
vt 0.755123 0.531670
vt 0.755469 0.651319
vt 0.833181 0.625917
vt 0.851169 0.531628
vt 0.716243 0.809276
vt 0.715553 0.693566
vt 0.669821 0.699779
vt 0.651949 0.808358
vt 0.429456 0.818081
vt 0.321285 0.844056
vt 0.479776 0.486161
vt 0.439809 0.629717
vt 0.323041 0.518856
vt 0.329621 0.612800
vt 0.415326 0.956394
vt 0.416621 0.834930
vt 0.335807 0.854351
vt 0.357939 0.948831
vt 0.732321 0.826588
vt 0.633884 0.825171
vt 0.852849 0.825083
vt 0.547541 0.959947
vt 0.548961 0.820803
vt 0.428036 0.970809
vt 0.851832 0.687243
vt 0.731303 0.675128
vt 0.633843 0.531622
vt 0.634188 0.638880
vt 0.633843 0.133474
vt 0.755123 0.133522
vt 0.164246 0.136337
vt 0.323041 0.120771
vt 0.478942 0.158138
vt 0.609991 0.649082
vt 0.583352 0.648756
vt 0.851169 0.133481
vt 0.308079 0.136337
vt 0.164246 0.015971
vt 0.293793 0.031093
vt 0.755505 0.015886
vt 0.829160 0.031673
vt 0.463007 0.015541
vt 0.329665 0.018573
vt 0.634224 0.028189
vt 0.484392 0.162648
vt 0.485203 0.481518
vt 0.860016 0.043959
vt 0.860827 0.362829
vt 0.582019 0.653053
vt 0.555320 0.653049
vt 0.555320 0.971968
vt 0.582019 0.971972
vt 0.027193 0.674449
vt 0.000663 0.674797
vt 0.335807 0.854351
vt 0.348349 0.960444
vt 0.357939 0.948831
vt 0.415326 0.956394
vt 0.416621 0.834930
vt 0.669821 0.699779
vt 0.657019 0.685271
vt 0.651949 0.808358
vt 0.715553 0.693566
vt 0.716243 0.809276
vn 0.0000 -1.0000 0.0000
vn 0.9977 0.0324 0.0590
vn 0.9835 0.1725 0.0543
vn 0.9780 0.1737 0.1155
vn 0.9927 0.0219 0.1186
vn 0.0817 0.2381 -0.9678
vn 0.0728 0.0694 0.9949
vn 0.1432 0.1002 0.9846
vn 0.0000 0.1908 0.9816
vn 0.0000 0.0480 0.9988
vn 0.0840 0.9951 0.0526
vn 0.0000 0.9975 0.0702
vn 0.0000 0.9924 0.1232
vn 0.1179 0.9857 0.1202
vn 0.1829 0.9810 0.0651
vn 0.1962 0.9735 0.1170
vn 0.1326 0.2254 0.9652
vn 0.0000 0.0837 -0.9965
vn 0.0000 0.2601 -0.9656
vn 0.1100 0.1699 -0.9793
vn 0.0907 0.1202 -0.9886
vn 0.0000 -0.0955 -0.9954
vn 0.0522 -0.0981 -0.9938
vn 0.0888 -0.1000 0.9910
vn 0.0340 0.1468 0.9886
vn 0.0446 -0.0980 0.9942
vn 0.0000 -0.0958 0.9954
vn 0.0078 0.1386 -0.9903
vn 0.1039 -0.1004 -0.9895
vn 0.9923 -0.1081 0.0599
vn 0.9867 -0.1103 0.1191
vn 0.9918 -0.1084 -0.0673
vn 0.9974 0.0304 -0.0645
vn 0.1551 0.9817 -0.1097
vn 0.0820 0.9929 -0.0859
vn 0.2299 0.0000 -0.9732
vn 0.0000 0.0000 -1.0000
vn 0.9839 0.1690 -0.0572
vn 0.9912 0.0232 -0.1298
vn 0.9784 0.1663 -0.1230
vn 0.0893 0.9756 -0.2002
vn 0.0000 0.9784 -0.2066
vn 0.0000 0.9928 -0.1196
vn 0.1457 0.9701 -0.1940
vn 0.9848 -0.1108 -0.1336
vn 0.0000 1.0000 0.0000
vn 1.0000 0.0000 0.0027
vn 0.0000 0.0000 1.0000
vn 0.2071 0.0000 0.9783
vn 0.2553 0.0131 0.9668
vn 0.0028 0.1167 0.9932
vn -0.0019 0.1229 0.9924
vn -0.0331 0.3797 0.9245
vn 0.2310 0.2842 0.9305
vn -0.1435 0.0013 -0.9896
vn 0.2086 0.0484 -0.9768
vn -0.1504 0.0085 -0.9886
vn -0.1057 0.3511 -0.9303
vn 0.2574 0.3969 -0.8810
vn -0.9977 0.0324 0.0590
vn -0.9927 0.0219 0.1186
vn -0.9780 0.1737 0.1155
vn -0.9835 0.1725 0.0543
vn -0.0817 0.2381 -0.9678
vn -0.0728 0.0694 0.9949
vn -0.1432 0.1002 0.9846
vn -0.0840 0.9951 0.0526
vn -0.1179 0.9857 0.1202
vn -0.1829 0.9810 0.0651
vn -0.1962 0.9735 0.1170
vn -0.1326 0.2254 0.9652
vn -0.0907 0.1202 -0.9886
vn -0.1100 0.1699 -0.9793
vn -0.0522 -0.0981 -0.9938
vn -0.0888 -0.1000 0.9910
vn -0.0446 -0.0980 0.9942
vn -0.0340 0.1468 0.9886
vn -0.1039 -0.1004 -0.9895
vn -0.0078 0.1386 -0.9903
vn -0.9923 -0.1081 0.0599
vn -0.9867 -0.1103 0.1191
vn -0.9918 -0.1084 -0.0673
vn -0.9974 0.0304 -0.0645
vn -0.1551 0.9817 -0.1097
vn -0.0820 0.9929 -0.0859
vn -0.2299 0.0000 -0.9732
vn -0.9839 0.1690 -0.0572
vn -0.9912 0.0232 -0.1298
vn -0.9784 0.1663 -0.1230
vn -0.0893 0.9756 -0.2002
vn -0.1457 0.9701 -0.1940
vn -0.9848 -0.1108 -0.1336
vn -1.0000 0.0000 0.0027
vn -0.2071 0.0000 0.9783
vn -0.2553 0.0131 0.9668
vn 0.0019 0.1229 0.9924
vn -0.0028 0.1167 0.9932
vn 0.0331 0.3797 0.9245
vn -0.2310 0.2842 0.9305
vn 0.1435 0.0013 -0.9896
vn 0.1504 0.0085 -0.9886
vn -0.2086 0.0484 -0.9768
vn 0.1057 0.3511 -0.9303
vn -0.2574 0.3969 -0.8810
usemtl Robot
s 1
f 16/1/1 104/2/1 88/3/1 92/4/1
f 17/5/2 89/6/3 90/7/4 29/8/5
f 124/9/6 121/10/6 122/11/6 123/12/6
f 30/13/7 99/14/8 100/15/9 50/16/10
f 24/17/11 56/18/12 40/19/13 28/20/14
f 13/21/15 24/17/11 28/20/14 91/22/16
f 119/23/17 117/24/17 118/25/17 120/26/17
f 49/27/18 102/28/19 31/29/20 34/30/21
f 55/31/1 16/1/1 92/4/1 101/32/1
f 98/33/22 49/27/18 34/30/21 97/34/23
f 87/35/24 86/36/25 30/13/7 5/37/26
f 5/37/26 30/13/7 50/16/10 41/38/27
f 97/34/23 34/30/21 83/39/28 84/40/29
f 14/41/30 17/5/2 29/8/5 4/42/31
f 18/43/32 22/44/33 17/5/2 14/41/30
f 62/45/1 21/46/1 16/1/1 55/31/1
f 103/47/34 23/48/35 24/17/11 13/21/15
f 106/49/36 110/50/37 71/51/37 112/52/36
f 22/44/33 19/53/38 89/6/3 17/5/2
f 21/46/1 96/54/1 104/2/1 16/1/1
f 7/55/1 85/56/1 96/54/1 21/46/1
f 33/57/39 95/58/40 19/53/38 22/44/33
f 93/59/41 42/60/42 63/61/43 23/48/35
f 94/62/44 93/59/41 23/48/35 103/47/34
f 39/63/1 7/55/1 21/46/1 62/45/1
f 2/64/45 33/57/39 22/44/33 18/43/32
f 105/65/46 107/66/46 24/17/11 23/48/35
f 107/66/46 109/67/46 56/18/12 24/17/11
f 67/68/46 105/65/46 23/48/35 63/61/43
f 111/69/46 116/70/46 115/71/46 113/72/46
f 108/73/47 20/74/47 25/75/47 114/76/47
f 69/77/48 15/78/49 26/79/49 72/80/48
f 8/81/50 3/82/51 27/83/52 99/14/8
f 3/82/51 10/84/53 86/36/25 27/83/52
f 11/85/54 8/81/50 99/14/8 30/13/7
f 10/84/53 11/85/54 30/13/7 86/36/25
f 1/86/55 6/87/56 31/29/20 32/88/57
f 9/89/58 1/86/55 32/88/57 83/39/28
f 6/87/56 12/90/59 34/30/21 31/29/20
f 12/90/59 9/89/58 83/39/28 34/30/21
f 58/91/1 134/92/1 130/93/1 142/94/1
f 59/95/60 77/96/61 132/97/62 131/98/63
f 158/99/64 157/100/64 156/101/64 155/102/64
f 78/103/65 50/16/10 100/15/9 140/104/66
f 70/105/67 76/106/68 40/19/13 56/18/12
f 53/107/69 133/108/70 76/106/68 70/105/67
f 153/109/71 154/110/71 152/111/71 151/112/71
f 49/27/18 82/113/72 79/114/73 102/28/19
f 55/31/1 101/32/1 134/92/1 58/91/1
f 98/33/22 139/115/74 82/113/72 49/27/18
f 129/116/75 43/117/76 78/103/65 128/118/77
f 43/117/76 41/38/27 50/16/10 78/103/65
f 139/115/74 126/119/78 125/120/79 82/113/72
f 54/121/80 38/122/81 77/96/61 59/95/60
f 60/123/82 54/121/80 59/95/60 66/124/83
f 62/45/1 55/31/1 58/91/1 65/125/1
f 141/126/84 53/107/69 70/105/67 68/127/85
f 144/128/86 148/129/86 71/51/37 110/50/37
f 66/124/83 59/95/60 131/98/63 61/130/87
f 65/125/1 58/91/1 142/94/1 138/131/1
f 45/132/1 65/125/1 138/131/1 127/133/1
f 81/134/88 66/124/83 61/130/87 137/135/89
f 135/136/90 68/127/85 63/61/43 42/60/42
f 136/137/91 141/126/84 68/127/85 135/136/90
f 39/63/1 62/45/1 65/125/1 45/132/1
f 36/138/92 60/123/82 66/124/83 81/134/88
f 143/139/46 68/127/85 70/105/67 145/140/46
f 145/140/46 70/105/67 56/18/12 109/67/46
f 67/68/46 63/61/43 68/127/85 143/139/46
f 147/141/46 149/142/46 115/71/46 116/70/46
f 146/143/93 150/144/93 73/145/93 64/146/93
f 69/77/48 72/80/48 74/147/94 57/148/94
f 46/149/95 140/104/66 75/150/96 37/151/97
f 37/151/97 75/150/96 128/118/77 48/152/98
f 51/153/99 78/103/65 140/104/66 46/149/95
f 48/152/98 128/118/77 78/103/65 51/153/99
f 35/154/100 80/155/101 79/114/73 44/156/102
f 47/157/103 125/120/79 80/155/101 35/154/100
f 44/156/102 79/114/73 82/113/72 52/158/104
f 52/158/104 82/113/72 125/120/79 47/157/103
