{
    "asset" : {
        "generator" : "Khronos glTF Blender I/O v0.9.36",
        "version" : "2.0"
    },
    "scene" : 0,
    "scenes" : [
        {
            "name" : "Scene",
            "nodes" : [
                0
            ]
        }
    ],
    "nodes" : [
        {
            "mesh" : 0,
            "name" : "Cube"
        }
    ],
    "materials" : [
        {
            "doubleSided" : true,
            "name" : "daf",
            "pbrMetallicRoughness" : {
                "baseColorTexture" : {
                    "index" : 0,
                    "texCoord" : 0
                },
                "metallicFactor" : 0,
                "roughnessFactor" : 1
            }
        }
    ],
    "meshes" : [
        {
            "name" : "Cube.001",
            "primitives" : [
                {
                    "attributes" : {
                        "POSITION" : 0,
                        "NORMAL" : 1,
                        "TEXCOORD_0" : 2
                    },
                    "indices" : 3,
                    "material" : 0
                }
            ]
        }
    ],
    "textures" : [
        {
            "source" : 0
        }
    ],
    "images" : [
        {
            "bufferView" : 4,
            "mimeType" : "image/png",
            "name" : "daf"
        }
    ],
    "accessors" : [
        {
            "bufferView" : 0,
            "componentType" : 5126,
            "count" : 321,
            "max" : [
                0.8022361993789673,
                2.2913544178009033,
                3.3242199420928955
            ],
            "min" : [
                -0.00046440958976745605,
                -0.0031773149967193604,
                -2
            ],
            "type" : "VEC3"
        },
        {
            "bufferView" : 1,
            "componentType" : 5126,
            "count" : 321,
            "type" : "VEC3"
        },
        {
            "bufferView" : 2,
            "componentType" : 5126,
            "count" : 321,
            "type" : "VEC2"
        },
        {
            "bufferView" : 3,
            "componentType" : 5123,
            "count" : 561,
            "type" : "SCALAR"
        }
    ],
    "bufferViews" : [
        {
            "buffer" : 0,
            "byteLength" : 3852,
            "byteOffset" : 0
        },
        {
            "buffer" : 0,
            "byteLength" : 3852,
            "byteOffset" : 3852
        },
        {
            "buffer" : 0,
            "byteLength" : 2568,
            "byteOffset" : 7704
        },
        {
            "buffer" : 0,
            "byteLength" : 1122,
            "byteOffset" : 10272
        },
        {
            "buffer" : 0,
            "byteLength" : 271189,
            "byteOffset" : 11396
        }
    ],
    "buffers" : [
        {
            "byteLength" : 282588,
            "uri" : "data:application/octet-stream;base64,"
        }
    ]
}
