# Blender v2.80 (sub 75) OBJ File: 'Warehouse.blend'
# www.blender.org
mtllib Warehouse.mtl
o WarehouseMidLoading_Cube.002
v -12.000000 0.000000 -3.000000
v 12.000000 0.000000 -3.000000
v 12.000000 0.000000 3.000000
v 12.000000 4.000000 -3.000000
v 12.000000 4.000000 3.000000
v -12.000000 4.000000 -3.000000
v -12.000000 4.000000 3.000000
v -12.000000 0.000000 3.000000
v -12.000000 0.000000 -1.000000
v -12.000000 0.000000 1.000000
v -12.000000 3.000000 1.000000
v -12.000000 3.000000 -1.000000
v 12.000000 0.000000 -0.200000
v 12.000000 0.000000 0.200000
v 12.000000 4.000000 -0.200000
v 12.000000 4.000000 0.200000
v 12.100000 0.000000 -0.200000
v 12.100000 0.000000 0.200000
v 12.100000 4.000000 -0.200000
v 12.100000 4.000000 0.200000
v -12.200000 -0.200000 -3.000000
v 12.300000 -0.200000 -3.000000
v 12.300000 -0.200000 3.000000
v 12.300000 4.000000 -3.000000
v 12.300000 4.000000 3.000000
v -12.200000 4.000000 -3.000000
v -12.200000 4.000000 3.000000
v -12.200000 -0.200000 3.000000
v -12.200000 0.000000 -1.000000
v -12.200000 0.000000 1.000000
v -12.200000 3.000000 1.000000
v -12.200000 3.000000 -1.000000
v 12.300000 -0.200000 -0.500000
v 12.300000 -0.200000 0.400000
v 12.300000 4.000000 -0.500000
v 12.300000 4.000000 0.400000
v 12.400001 -0.200000 -0.500000
v 12.400001 -0.200000 0.400000
v 12.400001 4.000000 -0.500000
v 12.400001 4.000000 0.400000
vt 0.909804 0.784314
vt 0.800000 0.784314
vt 0.800000 0.627451
vt 0.909804 0.627451
vt 0.956863 0.470588
vt 0.800000 0.470588
vt 0.839216 0.392157
vt 0.956863 0.392157
vt 0.800000 0.235294
vt 0.839216 0.313725
vt 0.956863 0.235294
vt 0.956863 0.313725
vt 0.972549 0.235294
vt 0.972549 0.392157
vt 0.956863 0.392157
vt 0.956863 0.235294
vt 0.972549 0.470588
vt 0.972549 0.627451
vt 0.968628 0.627451
vt 0.968628 0.470588
vt 0.909804 0.470588
vt 0.909804 0.627451
vt 0.800000 0.627451
vt 0.800000 0.470588
vt 0.968628 0.784314
vt 0.968628 0.627451
vt 0.972549 0.627451
vt 0.972549 0.784314
vt 0.470588 0.945098
vt 0.235294 0.945098
vt 0.235294 0.003922
vt 0.470588 0.003922
vt 0.345098 0.003922
vt 0.345098 0.000000
vt 0.360784 0.000000
vt 0.360784 0.003922
vt 0.000000 0.000000
vt 0.000000 0.000000
vt 0.000000 0.000000
vt 0.000000 0.000000
vt 0.901961 0.949019
vt 0.901961 0.784314
vt 1.000000 0.784314
vt 1.000000 0.949019
vt 0.800000 0.235294
vt 0.807843 0.156863
vt 0.925490 0.156863
vt 0.964706 0.235294
vt 0.925490 0.078431
vt 0.964706 0.000000
vt 0.807843 0.078431
vt 0.800000 0.000000
vt 0.909804 0.470588
vt 0.945098 0.470588
vt 0.945098 0.635294
vt 0.909804 0.635294
vt 0.968628 0.000000
vt 0.972549 0.000000
vt 0.972549 0.164706
vt 0.968628 0.164706
vt 0.800000 0.784314
vt 0.901961 0.784314
vt 0.901961 0.949019
vt 0.800000 0.949019
vt 0.964706 0.000000
vt 0.968628 0.000000
vt 0.968628 0.164706
vt 0.964706 0.164706
vt 0.000000 0.964706
vt 0.000000 0.003922
vt 0.235294 0.003922
vt 0.235294 0.964706
vt 0.098039 0.003922
vt 0.098039 0.000000
vt 0.133333 0.000000
vt 0.133333 0.003922
vt 0.627451 0.952941
vt 0.627451 0.011765
vt 0.635294 0.000000
vt 0.635294 0.960784
vt 0.945098 0.580392
vt 0.945098 0.470588
vt 0.956863 0.470588
vt 0.956863 0.572549
vt 0.635294 0.949019
vt 0.792157 0.949019
vt 0.800000 0.960784
vt 0.635294 0.960784
vt 0.470588 0.011765
vt 0.470588 0.000000
vt 0.960784 0.705882
vt 0.960784 0.470588
vt 0.968628 0.470588
vt 0.968628 0.705882
vt 0.792157 0.007843
vt 0.635294 0.007843
vt 0.635294 0.000000
vt 0.470588 0.952941
vt 0.470588 0.960784
vt 0.925490 0.713725
vt 0.925490 0.635294
vt 0.933333 0.635294
vt 0.933333 0.713725
vt 0.917647 0.635294
vt 0.917647 0.752941
vt 0.909804 0.752941
vt 0.909804 0.635294
vt 0.941177 0.635294
vt 0.941177 0.713725
vt 0.933333 0.713725
vt 0.933333 0.635294
vt 0.917647 0.752941
vt 0.917647 0.635294
vt 0.925490 0.635294
vt 0.925490 0.752941
vt 0.945098 0.705882
vt 0.945098 0.596078
vt 0.956863 0.607843
vt 0.956863 0.705882
vt 0.949020 0.596078
vt 0.949020 0.580392
vt 0.960784 0.572549
vt 0.960784 0.607843
vn -1.0000 0.0000 0.0000
vn 1.0000 0.0000 0.0000
vn 0.0000 0.0000 1.0000
vn 0.0000 0.0000 -1.0000
vn 0.0000 1.0000 0.0000
vn 0.0000 -1.0000 0.0000
usemtl Concrete
s off
f 2/1/1 13/2/1 15/3/1 4/4/1
f 1/5/2 6/6/2 12/7/2 9/8/2
f 6/6/2 7/9/2 11/10/2 12/7/2
f 7/9/2 8/11/2 10/12/2 11/10/2
f 19/13/1 17/14/1 18/15/1 20/16/1
f 15/17/3 13/18/3 17/19/3 19/20/3
f 16/21/1 14/22/1 3/23/1 5/24/1
f 14/25/4 16/26/4 20/27/4 18/28/4
f 1/29/5 8/30/5 3/31/5 2/32/5
f 3/31/5 14/33/5 18/34/5 17/35/5 13/36/5 2/32/5
f 8/37/3 1/38/3 9/39/3 10/40/3
f 22/41/2 24/42/2 35/43/2 33/44/2
f 21/45/1 29/46/1 32/47/1 26/48/1
f 26/48/1 32/47/1 31/49/1 27/50/1
f 27/50/1 31/49/1 30/51/1 28/52/1
f 39/53/2 40/54/2 38/55/2 37/56/2
f 35/57/4 39/58/4 37/59/4 33/60/4
f 36/61/2 25/62/2 23/63/2 34/64/2
f 34/65/3 38/66/3 40/67/3 36/68/3
f 21/69/6 22/70/6 23/71/6 28/72/6
f 23/71/6 22/70/6 33/73/6 37/74/6 38/75/6 34/76/6
f 28/52/1 30/51/1 29/46/1 21/45/1
f 1/77/4 2/78/4 22/79/4 21/80/4
f 16/81/5 5/82/5 25/83/5 36/84/5
f 5/85/3 3/86/3 23/87/3 25/88/3
f 2/78/4 4/89/4 24/90/4 22/79/4
f 7/91/5 6/92/5 26/93/5 27/94/5
f 8/95/3 7/96/3 27/97/3 28/52/3
f 3/86/3 8/95/3 28/52/3 23/87/3
f 6/98/4 1/77/4 21/80/4 26/99/4
f 10/100/5 9/101/5 29/102/5 30/103/5
f 11/104/4 10/105/4 30/106/4 31/107/4
f 12/108/6 11/109/6 31/110/6 32/111/6
f 9/112/3 12/113/3 32/114/3 29/115/3
f 4/116/5 15/117/5 35/118/5 24/119/5
f 19/120/5 20/121/5 40/122/5 39/123/5
f 15/117/5 19/120/5 39/123/5 35/118/5
f 20/121/5 16/81/5 36/84/5 40/122/5
