{
    "asset" : {
        "generator" : "Khronos glTF Blender I/O v0.9.36",
        "version" : "2.0"
    },
    "scene" : 0,
    "scenes" : [
        {
            "name" : "Scene",
            "nodes" : [
                0
            ]
        }
    ],
    "nodes" : [
        {
            "mesh" : 0,
            "name" : "WarehouseEnd",
            "translation" : [
                -50,
                0,
                0
            ]
        }
    ],
    "materials" : [
        {
            "name" : "Concrete",
            "pbrMetallicRoughness" : {}
        }
    ],
    "meshes" : [
        {
            "name" : "Cube.003",
            "primitives" : [
                {
                    "attributes" : {
                        "POSITION" : 0,
                        "NORMAL" : 1,
                        "TEXCOORD_0" : 2
                    },
                    "indices" : 3,
                    "material" : 0
                }
            ]
        }
    ],
    "accessors" : [
        {
            "bufferView" : 0,
            "componentType" : 5126,
            "count" : 65,
            "max" : [
                20,
                50,
                60
            ],
            "min" : [
                -20,
                0,
                -60
            ],
            "type" : "VEC3"
        },
        {
            "bufferView" : 1,
            "componentType" : 5126,
            "count" : 65,
            "type" : "VEC3"
        },
        {
            "bufferView" : 2,
            "componentType" : 5126,
            "count" : 65,
            "type" : "VEC2"
        },
        {
            "bufferView" : 3,
            "componentType" : 5123,
            "count" : 93,
            "type" : "SCALAR"
        }
    ],
    "bufferViews" : [
        {
            "buffer" : 0,
            "byteLength" : 780,
            "byteOffset" : 0
        },
        {
            "buffer" : 0,
            "byteLength" : 780,
            "byteOffset" : 780
        },
        {
            "buffer" : 0,
            "byteLength" : 520,
            "byteOffset" : 1560
        },
        {
            "buffer" : 0,
            "byteLength" : 186,
            "byteOffset" : 2080
        }
    ],
    "buffers" : [
        {
            "byteLength" : 2268,
            "uri" : "data:application/octet-stream;base64,"
        }
    ]
}
